<?xml version="1.0" encoding="utf-8"?>
<!-- Generator: Adobe Illustrator 15.0.0, SVG Export Plug-In  -->
<!DOCTYPE svg PUBLIC "-//W3C//DTD SVG 1.1//EN" "http://www.w3.org/Graphics/SVG/1.1/DTD/svg11.dtd" [
	<!ENTITY ns_flows "http://ns.adobe.com/Flows/1.0/">
]>
<svg version="1.1"
	 xmlns="http://www.w3.org/2000/svg" xmlns:xlink="http://www.w3.org/1999/xlink" xmlns:a="http://ns.adobe.com/AdobeSVGViewerExtensions/3.0/"
	 x="0px" y="0px" width="403px" height="187px" viewBox="-3.835 -2.414 403 187" enable-background="new -3.835 -2.414 403 187"
	 xml:space="preserve">
<defs>
</defs>
<path fill="#E11921" d="M0,125.761V34.655h18.396v35.857H54.44V34.655h18.395v91.106H54.44V85.925H18.396v39.836H0z"/>
<path fill="#E11921" d="M174.009,125.761h-20.01l-7.955-20.694h-36.418l-7.52,20.694H82.593l35.484-91.106h19.453L174.009,125.761z
	 M140.14,89.717l-12.555-33.808L115.28,89.717H140.14z"/>
<path fill="#E11921" d="M265.923,125.761h-20.01l-7.955-20.694H201.54l-7.52,20.694h-19.514l35.486-91.106h19.451L265.923,125.761z
	 M232.054,89.717l-12.553-33.808l-12.305,33.808H232.054z"/>
<path fill="#E11921" d="M275.868,125.761V34.655h17.896l37.287,60.841V34.655h17.092v91.106h-18.459l-36.729-59.41v59.41H275.868z"
	/>
<path fill="#E11921" d="M356.524,22.176c0,0.628,0.107,1.243,0.322,1.848s0.52,1.154,0.914,1.647
	c0.359,0.493,0.814,0.897,1.371,1.208c0.555,0.314,1.191,0.471,1.908,0.471h3.98c1.002,0,1.861-0.11,2.58-0.335
	c0.717-0.223,1.344-0.493,1.881-0.807c0.537-0.357,0.984-0.75,1.344-1.175c0.359-0.425,0.699-0.84,1.021-1.243
	c0.18-0.313,0.395-0.74,0.645-1.278c0.252-0.537,0.307-1.029,0.162-1.477l1.721-0.269c0.322,0.402,0.457,0.896,0.402,1.479
	c-0.053,0.582-0.188,1.165-0.402,1.746c-0.25,0.583-0.557,1.131-0.914,1.646c-0.357,0.516-0.662,0.932-0.914,1.243
	c-0.359,0.405-0.744,0.785-1.156,1.143c-0.412,0.36-0.887,0.695-1.424,1.009c-0.574,0.314-1.221,0.56-1.936,0.739
	c-0.719,0.18-1.541,0.27-2.475,0.27H358.3c-0.719,0-1.426-0.191-2.125-0.571s-1.334-0.93-1.908-1.647
	c-0.574-0.76-1.039-1.669-1.398-2.721c-0.359-1.053-0.537-2.228-0.537-3.529V9.139c0-1.344,0.242-2.542,0.727-3.594
	c0.482-1.053,1.102-1.96,1.854-2.723c0.754-0.716,1.596-1.265,2.527-1.646c0.932-0.38,1.846-0.571,2.742-0.571h6.506
	c0.787,0,1.621,0.124,2.5,0.37c0.877,0.247,1.674,0.617,2.393,1.109c0.68,0.494,1.254,1.131,1.721,1.915
	c0.463,0.785,0.697,1.713,0.697,2.79v2.016c0,0.987-0.314,1.938-0.941,2.856c-0.627,0.919-1.443,1.759-2.445,2.521
	c-1.039,0.806-2.195,1.534-3.467,2.184s-2.555,1.199-3.846,1.647c-1.326,0.494-2.58,0.905-3.762,1.242
	c-1.184,0.337-2.188,0.549-3.012,0.639V22.176z M356.524,17.472c1.004-0.133,2.248-0.447,3.736-0.94
	c1.488-0.493,2.932-1.12,4.328-1.88c1.398-0.718,2.598-1.569,3.602-2.554c1.004-0.985,1.506-2.062,1.506-3.227V6.383
	c0-0.895-0.377-1.689-1.129-2.385c-0.752-0.694-1.666-1.042-2.742-1.042h-4.461c-0.898,0-1.65,0.201-2.26,0.606
	c-0.609,0.402-1.092,0.896-1.451,1.477c-0.395,0.584-0.68,1.211-0.859,1.883s-0.27,1.299-0.27,1.881V17.472z"/>
<path fill="#E11921" d="M389.212,28.022c1.002,0,1.828-0.066,2.473-0.201c0.645-0.134,1.166-0.291,1.559-0.471
	c0.357-0.223,0.627-0.471,0.807-0.738c0.18-0.27,0.305-0.515,0.377-0.74l0.645-0.336c0.322,0.405,0.645,0.897,0.969,1.479
	c0.322,0.582,0.555,1.143,0.699,1.681c0.178,0.716,0.143,1.131-0.109,1.243c-0.25,0.112-0.59,0.167-1.021,0.167H376.47
	c-0.287,0-0.475-0.279-0.564-0.838c-0.09-0.56-0.045-1.02,0.135-1.378c0.178-0.313,0.502-0.862,0.969-1.646
	c0.463-0.784,1.039-1.714,1.719-2.79c0.645-1.074,1.354-2.261,2.123-3.561c0.771-1.3,1.531-2.599,2.285-3.897
	c1.793-3.046,3.781-6.43,5.967-10.148c0.217-0.358,0.422-0.783,0.619-1.277c0.197-0.493,0.297-0.941,0.297-1.344
	c0-0.762-0.467-1.143-1.398-1.143h-6.613c-0.932,0-1.568,0.079-1.908,0.236c-0.342,0.157-0.602,0.302-0.779,0.436
	c-0.611,0.358-1.111,0.292-1.506-0.201c-0.215-0.358-0.395-0.728-0.537-1.109c-0.145-0.379-0.25-0.728-0.322-1.042L377.224,0
	c0.248,0.045,0.527,0.067,0.832,0.067c0.303,0,0.652,0,1.049,0h16.289c0.215,0,0.377,0.09,0.484,0.27s0.18,0.358,0.215,0.537
	c0,0.225-0.018,0.448-0.053,0.672c-0.037,0.225-0.072,0.36-0.109,0.404c-2.473,4.346-4.963,8.692-7.471,13.038
	c-2.51,4.345-5,8.691-7.475,13.036H389.212z"/>
<path fill="#212021" d="M26.892,150.26H2.503v-4.635h9.18v-4.41h5.984v4.41h9.27L26.892,150.26z M14.696,167.719
	c-5.939,0-10.169-3.24-10.169-8.009c0-4.68,4.229-7.965,10.169-7.965c5.94,0,10.17,3.285,10.17,7.965
	C24.866,164.479,20.637,167.719,14.696,167.719z M14.337,177.259H36.61v4.725H8.397v-12.015h5.939V177.259z M14.696,163.22
	c2.61,0,4.5-1.215,4.5-3.51c0-2.25-1.89-3.465-4.5-3.465c-2.654,0-4.5,1.215-4.5,3.465C10.196,162.005,12.042,163.22,14.696,163.22z
	 M40.616,153.905v4.905h-5.49v13.455h-5.939v-31.003h5.939v12.644H40.616z"/>
<path fill="#212021" d="M84.717,152.555c-2.565,6.524-8.37,10.979-17.505,13.544l-2.295-4.68c9.45-2.52,13.994-6.975,14.76-12.6
	h-12.51v-4.77h18.99c0,1.305-0.091,2.565-0.271,3.78h7.425v-6.569h5.939v23.849h-5.939v-3.959h-9.135v-4.77h9.135v-3.825H84.717z
	 M99.521,174.064c0,5.175-5.534,8.415-13.949,8.415c-8.459,0-13.994-3.24-13.994-8.415s5.535-8.415,13.994-8.415
	C93.986,165.649,99.521,168.889,99.521,174.064z M93.671,174.064c0-2.52-3.015-3.825-8.1-3.825c-5.129,0-8.145,1.305-8.145,3.825
	c0,2.52,3.016,3.825,8.145,3.825C90.656,177.889,93.671,176.584,93.671,174.064z"/>
<path fill="#212021" d="M126.927,170.779c7.561,0,17.549,0.045,26.279-1.125l0.404,4.32c-9.18,1.71-18.629,1.665-25.963,1.62
	L126.927,170.779z M152.621,150.935h-24.839V146.3h9.404v-4.545h5.939v4.545h9.495V150.935z M140.247,152.555
	c5.939,0,10.169,3.15,10.169,7.875c0,4.635-4.229,7.83-10.169,7.83c-5.985,0-10.215-3.195-10.215-7.83
	C130.032,155.705,134.262,152.555,140.247,152.555z M140.247,157.055c-2.746,0-4.59,1.17-4.59,3.375c0,2.16,1.844,3.33,4.59,3.33
	c2.699,0,4.545-1.17,4.545-3.33C144.792,158.225,142.946,157.055,140.247,157.055z M161.261,141.261v41.443h-5.939v-41.443H161.261z
	"/>
<path fill="#212021" d="M226.286,163.445v4.589h-37.529v-4.589h15.795v-2.07c-6.975-0.405-10.89-2.34-10.89-5.805
	c0-3.915,4.995-5.895,13.859-5.895c8.909,0,13.904,1.98,13.904,5.895c0,3.465-3.915,5.4-10.935,5.805v2.07H226.286z M224.306,148.64
	h-33.748v-4.455h13.994v-3.24h5.939v3.24h13.814V148.64z M193.167,170.194h28.619v12.015h-28.619V170.194z M198.972,177.844h16.965
	v-3.285h-16.965V177.844z M207.521,157.505c5.175,0,7.515-0.585,7.515-1.935c0-1.35-2.34-1.89-7.515-1.89
	c-5.13,0-7.515,0.54-7.515,1.89C200.007,156.92,202.392,157.505,207.521,157.505z"/>
<path fill="#212021" d="M272.276,142.161h5.535v38.698h-5.535V161.6h-5.895c-2.205,4.95-6.075,9.314-12.375,12.959l-3.285-4.14
	c5.221-3.06,8.506-6.48,10.439-10.439l-9.539,0.99l-0.675-4.95l11.79-0.63c0.359-1.485,0.584-3.06,0.719-4.725h-10.439v-4.77h16.154
	c0,3.915-0.314,7.604-1.17,10.979h4.275V142.161z M286.54,141.215v41.443h-5.624v-41.443H286.54z"/>
<path fill="#212021" d="M347.786,141.215v41.579h-5.94V160.97h-6.885c-0.63,7.919-4.86,12.779-10.62,12.779
	c-6.164,0-10.709-5.715-10.709-14.849c0-9.09,4.545-14.759,10.709-14.759c5.58,0,9.766,4.544,10.575,12.014h6.93v-14.939H347.786z
	 M329.427,158.9c0-6.12-2.025-9.405-5.086-9.405c-3.014,0-5.039,3.285-5.039,9.405c0,6.165,2.025,9.45,5.039,9.45
	C327.401,168.35,329.427,165.064,329.427,158.9z"/>
</svg>
